<svg xmlns="http://www.w3.org/2000/svg" viewBox="0 0 24 30" x="0px" y="0px"><path d="m12,22.75c-.37,0-.75-.02-1.12-.06-4.95-.5-8.97-4.45-9.55-9.39C.66,7.59,4.55,2.37,10.19,1.41c.52-.09,1.02.15,1.29.61.26.45.22,1.01-.1,1.41-1.29,1.58-1.84,3.56-1.56,5.6.44,3.21,3.11,5.81,6.35,6.17h0c1.4.16,2.81-.09,4.06-.71.47-.23,1.01-.15,1.4.21.39.36.51.91.31,1.39-1.68,4.09-5.58,6.67-9.93,6.67ZM9.81,3.02c-4.51,1.09-7.55,5.4-7,10.1.5,4.25,3.95,7.64,8.21,8.08,3.9.4,7.54-1.63,9.25-5.09-1.35.55-2.81.75-4.28.58-3.9-.44-7.13-3.57-7.66-7.46-.31-2.23.21-4.41,1.48-6.22Z"/><text x="0" y="39" fill="#000000" font-size="5px" font-weight="bold" font-family="'Helvetica Neue', Helvetica, Arial-Unicode, Arial, Sans-serif">Created by Arkinasi</text><text x="0" y="44" fill="#000000" font-size="5px" font-weight="bold" font-family="'Helvetica Neue', Helvetica, Arial-Unicode, Arial, Sans-serif">from the Noun Project</text></svg>