<svg xmlns="http://www.w3.org/2000/svg" viewBox="0 0 24 30" x="0px" y="0px"><path d="m12,16.75c-2.62,0-4.75-2.13-4.75-4.75s2.13-4.75,4.75-4.75,4.75,2.13,4.75,4.75-2.13,4.75-4.75,4.75Zm0-8c-1.79,0-3.25,1.46-3.25,3.25s1.46,3.25,3.25,3.25,3.25-1.46,3.25-3.25-1.46-3.25-3.25-3.25Zm.75-4.75v-2c0-.41-.34-.75-.75-.75s-.75.34-.75.75v2c0,.41.34.75.75.75s.75-.34.75-.75Zm0,18v-2c0-.41-.34-.75-.75-.75s-.75.34-.75.75v2c0,.41.34.75.75.75s.75-.34.75-.75Zm5.44-15.13l1.41-1.41c.29-.29.29-.77,0-1.06s-.77-.29-1.06,0l-1.41,1.41c-.29.29-.29.77,0,1.06.15.15.34.22.53.22s.38-.07.53-.22Zm-12.73,12.73l1.41-1.41c.29-.29.29-.77,0-1.06s-.77-.29-1.06,0l-1.41,1.41c-.29.29-.29.77,0,1.06.15.15.34.22.53.22s.38-.07.53-.22Zm17.29-7.6c0-.41-.34-.75-.75-.75h-2c-.41,0-.75.34-.75.75s.34.75.75.75h2c.41,0,.75-.34.75-.75Zm-18,0c0-.41-.34-.75-.75-.75h-2c-.41,0-.75.34-.75.75s.34.75.75.75h2c.41,0,.75-.34.75-.75Zm14.85,7.6c.29-.29.29-.77,0-1.06l-1.41-1.41c-.29-.29-.77-.29-1.06,0s-.29.77,0,1.06l1.41,1.41c.15.15.34.22.53.22s.38-.07.53-.22ZM6.87,6.87c.29-.29.29-.77,0-1.06l-1.41-1.41c-.29-.29-.77-.29-1.06,0s-.29.77,0,1.06l1.41,1.41c.15.15.34.22.53.22s.38-.07.53-.22Z"/><text x="0" y="39" fill="#000000" font-size="5px" font-weight="bold" font-family="'Helvetica Neue', Helvetica, Arial-Unicode, Arial, Sans-serif">Created by Arkinasi</text><text x="0" y="44" fill="#000000" font-size="5px" font-weight="bold" font-family="'Helvetica Neue', Helvetica, Arial-Unicode, Arial, Sans-serif">from the Noun Project</text></svg>